ISO-10303-21;
HEADER;
FILE_DESCRIPTION(('Open CASCADE Model'),'2;1');
FILE_NAME('Open CASCADE Shape Model','2026-09-26T16:05:09',('Author'),(
    'Open CASCADE'),'Open CASCADE STEP processor 7.9','Open CASCADE 7.9'
  ,'Unknown');
FILE_SCHEMA(('AUTOMOTIVE_DESIGN { 1 0 10303 214 1 1 1 1 }'));
ENDSEC;
DATA;
#1 = APPLICATION_PROTOCOL_DEFINITION('international standard',
  'automotive_design',2000,#2);
#2 = APPLICATION_CONTEXT(
  'core data for automotive mechanical design processes');
#3 = SHAPE_DEFINITION_REPRESENTATION(#4,#10);
#4 = PRODUCT_DEFINITION_SHAPE('','',#5);
#5 = PRODUCT_DEFINITION('design','',#6,#9);
#6 = PRODUCT_DEFINITION_FORMATION('','',#7);
#7 = PRODUCT('Open CASCADE STEP translator 7.9 8',
  'Open CASCADE STEP translator 7.9 8','',(#8));
#8 = PRODUCT_CONTEXT('',#2,'mechanical');
#9 = PRODUCT_DEFINITION_CONTEXT('part definition',#2,'design');
#10 = ADVANCED_BREP_SHAPE_REPRESENTATION('',(#11,#15),#867);
#11 = AXIS2_PLACEMENT_3D('',#12,#13,#14);
#12 = CARTESIAN_POINT('',(0.,0.,0.));
#13 = DIRECTION('',(0.,0.,1.));
#14 = DIRECTION('',(1.,0.,-0.));
#15 = MANIFOLD_SOLID_BREP('',#16);
#16 = CLOSED_SHELL('',(#17,#453,#563,#653,#703,#753,#800,#830,#857));
#17 = ADVANCED_FACE('',(#18,#105,#279),#32,.T.);
#18 = FACE_BOUND('',#19,.T.);
#19 = EDGE_LOOP('',(#20,#50,#77,#78));
#20 = ORIENTED_EDGE('',*,*,#21,.T.);
#21 = EDGE_CURVE('',#22,#24,#26,.T.);
#22 = VERTEX_POINT('',#23);
#23 = CARTESIAN_POINT('',(190.,4.163799117101E-15,17.));
#24 = VERTEX_POINT('',#25);
#25 = CARTESIAN_POINT('',(300.,4.163799117101E-15,17.));
#26 = SEAM_CURVE('',#27,(#31,#43),.PCURVE_S1.);
#27 = LINE('',#28,#29);
#28 = CARTESIAN_POINT('',(190.,4.163799117101E-15,17.));
#29 = VECTOR('',#30,1.);
#30 = DIRECTION('',(1.,0.,0.));
#31 = PCURVE('',#32,#37);
#32 = CYLINDRICAL_SURFACE('',#33,17.);
#33 = AXIS2_PLACEMENT_3D('',#34,#35,#36);
#34 = CARTESIAN_POINT('',(190.,0.,0.));
#35 = DIRECTION('',(1.,0.,0.));
#36 = DIRECTION('',(-0.,0.,1.));
#37 = DEFINITIONAL_REPRESENTATION('',(#38),#42);
#38 = LINE('',#39,#40);
#39 = CARTESIAN_POINT('',(6.28318530718,-0.));
#40 = VECTOR('',#41,1.);
#41 = DIRECTION('',(0.,1.));
#42 = ( GEOMETRIC_REPRESENTATION_CONTEXT(2) 
PARAMETRIC_REPRESENTATION_CONTEXT() REPRESENTATION_CONTEXT('2D SPACE',''
  ) );
#43 = PCURVE('',#32,#44);
#44 = DEFINITIONAL_REPRESENTATION('',(#45),#49);
#45 = LINE('',#46,#47);
#46 = CARTESIAN_POINT('',(0.,-0.));
#47 = VECTOR('',#48,1.);
#48 = DIRECTION('',(0.,1.));
#49 = ( GEOMETRIC_REPRESENTATION_CONTEXT(2) 
PARAMETRIC_REPRESENTATION_CONTEXT() REPRESENTATION_CONTEXT('2D SPACE',''
  ) );
#50 = ORIENTED_EDGE('',*,*,#51,.F.);
#51 = EDGE_CURVE('',#24,#24,#52,.T.);
#52 = SURFACE_CURVE('',#53,(#58,#65),.PCURVE_S1.);
#53 = CIRCLE('',#54,17.);
#54 = AXIS2_PLACEMENT_3D('',#55,#56,#57);
#55 = CARTESIAN_POINT('',(300.,0.,0.));
#56 = DIRECTION('',(1.,0.,0.));
#57 = DIRECTION('',(-0.,0.,1.));
#58 = PCURVE('',#32,#59);
#59 = DEFINITIONAL_REPRESENTATION('',(#60),#64);
#60 = LINE('',#61,#62);
#61 = CARTESIAN_POINT('',(0.,110.));
#62 = VECTOR('',#63,1.);
#63 = DIRECTION('',(1.,0.));
#64 = ( GEOMETRIC_REPRESENTATION_CONTEXT(2) 
PARAMETRIC_REPRESENTATION_CONTEXT() REPRESENTATION_CONTEXT('2D SPACE',''
  ) );
#65 = PCURVE('',#66,#71);
#66 = PLANE('',#67);
#67 = AXIS2_PLACEMENT_3D('',#68,#69,#70);
#68 = CARTESIAN_POINT('',(300.,0.,0.));
#69 = DIRECTION('',(1.,0.,0.));
#70 = DIRECTION('',(-0.,0.,1.));
#71 = DEFINITIONAL_REPRESENTATION('',(#72),#76);
#72 = CIRCLE('',#73,17.);
#73 = AXIS2_PLACEMENT_2D('',#74,#75);
#74 = CARTESIAN_POINT('',(0.,0.));
#75 = DIRECTION('',(1.,0.));
#76 = ( GEOMETRIC_REPRESENTATION_CONTEXT(2) 
PARAMETRIC_REPRESENTATION_CONTEXT() REPRESENTATION_CONTEXT('2D SPACE',''
  ) );
#77 = ORIENTED_EDGE('',*,*,#21,.F.);
#78 = ORIENTED_EDGE('',*,*,#79,.T.);
#79 = EDGE_CURVE('',#22,#22,#80,.T.);
#80 = SURFACE_CURVE('',#81,(#86,#93),.PCURVE_S1.);
#81 = CIRCLE('',#82,17.);
#82 = AXIS2_PLACEMENT_3D('',#83,#84,#85);
#83 = CARTESIAN_POINT('',(190.,0.,0.));
#84 = DIRECTION('',(1.,0.,0.));
#85 = DIRECTION('',(-0.,0.,1.));
#86 = PCURVE('',#32,#87);
#87 = DEFINITIONAL_REPRESENTATION('',(#88),#92);
#88 = LINE('',#89,#90);
#89 = CARTESIAN_POINT('',(0.,0.));
#90 = VECTOR('',#91,1.);
#91 = DIRECTION('',(1.,0.));
#92 = ( GEOMETRIC_REPRESENTATION_CONTEXT(2) 
PARAMETRIC_REPRESENTATION_CONTEXT() REPRESENTATION_CONTEXT('2D SPACE',''
  ) );
#93 = PCURVE('',#94,#99);
#94 = PLANE('',#95);
#95 = AXIS2_PLACEMENT_3D('',#96,#97,#98);
#96 = CARTESIAN_POINT('',(190.,0.,0.));
#97 = DIRECTION('',(1.,0.,0.));
#98 = DIRECTION('',(-0.,0.,1.));
#99 = DEFINITIONAL_REPRESENTATION('',(#100),#104);
#100 = CIRCLE('',#101,17.);
#101 = AXIS2_PLACEMENT_2D('',#102,#103);
#102 = CARTESIAN_POINT('',(0.,0.));
#103 = DIRECTION('',(1.,0.));
#104 = ( GEOMETRIC_REPRESENTATION_CONTEXT(2) 
PARAMETRIC_REPRESENTATION_CONTEXT() REPRESENTATION_CONTEXT('2D SPACE',''
  ) );
#105 = FACE_BOUND('',#106,.T.);
#106 = EDGE_LOOP('',(#107));
#107 = ORIENTED_EDGE('',*,*,#108,.F.);
#108 = EDGE_CURVE('',#109,#109,#111,.T.);
#109 = VERTEX_POINT('',#110);
#110 = CARTESIAN_POINT('',(210.,16.850445097979,2.25));
#111 = SURFACE_CURVE('',#112,(#164,#219),.PCURVE_S1.);
#112 = B_SPLINE_CURVE_WITH_KNOTS('',8,(#113,#114,#115,#116,#117,#118,
    #119,#120,#121,#122,#123,#124,#125,#126,#127,#128,#129,#130,#131,
    #132,#133,#134,#135,#136,#137,#138,#139,#140,#141,#142,#143,#144,
    #145,#146,#147,#148,#149,#150,#151,#152,#153,#154,#155,#156,#157,
    #158,#159,#160,#161,#162,#163),.UNSPECIFIED.,.T.,.F.,(9,7,7,7,7,7,7,
    9),(0.,0.154580792336,0.28650523992,0.411708258671,0.568850631366,
    0.707289793852,0.827968235605,1.),.UNSPECIFIED.);
#113 = CARTESIAN_POINT('',(210.,16.850445097979,2.25));
#114 = CARTESIAN_POINT('',(210.23487481078,16.850445097979,2.25));
#115 = CARTESIAN_POINT('',(210.46940578952,16.85418647646,2.221978807712
    ));
#116 = CARTESIAN_POINT('',(210.70178426858,16.861651123354,
    2.166081857773));
#117 = CARTESIAN_POINT('',(210.93001332228,16.872651500079,
    2.081700833046));
#118 = CARTESIAN_POINT('',(211.15149000224,16.886813584614,
    1.967736129697));
#119 = CARTESIAN_POINT('',(211.36273931325,16.903467824624,
    1.822763842542));
#120 = CARTESIAN_POINT('',(211.55903657263,16.921522475578,
    1.645281149875));
#121 = CARTESIAN_POINT('',(211.88267986164,16.954645605613,
    1.254063617858));
#122 = CARTESIAN_POINT('',(212.0215645089,16.970342311655,1.042626762859
    ));
#123 = CARTESIAN_POINT('',(212.13819238845,16.984885629406,
    0.803019222836));
#124 = CARTESIAN_POINT('',(212.22351588388,16.996350844939,
    0.541061886214));
#125 = CARTESIAN_POINT('',(212.27153650081,17.002968152283,
    0.264737486428));
#126 = CARTESIAN_POINT('',(212.27937064242,17.003929119958,
    -1.688001611852E-02));
#127 = CARTESIAN_POINT('',(212.24737080291,16.999518220957,
    -0.294481148071));
#128 = CARTESIAN_POINT('',(212.11472094961,16.982503976545,
    -0.811118216396));
#129 = CARTESIAN_POINT('',(212.01962794531,16.970582717911,
    -1.043705813257));
#130 = CARTESIAN_POINT('',(211.89976492069,16.95621831145,
    -1.255014731293));
#131 = CARTESIAN_POINT('',(211.76007944946,16.940664293936,
    -1.443830810075));
#132 = CARTESIAN_POINT('',(211.60494328317,16.925028505196,
    -1.609663954987));
#133 = CARTESIAN_POINT('',(211.43826834753,16.910192885696,
    -1.752548424277));
#134 = CARTESIAN_POINT('',(211.26356106604,16.896803184657,
    -1.872945683695));
#135 = CARTESIAN_POINT('',(210.85851051294,16.870801068087,
    -2.095624109635));
#136 = CARTESIAN_POINT('',(210.62300633433,16.859108558322,
    -2.186733180859));
#137 = CARTESIAN_POINT('',(210.38137164039,16.85099516251,
    -2.246499359932));
#138 = CARTESIAN_POINT('',(210.13646047315,16.846890575668,
    -2.275943374015));
#139 = CARTESIAN_POINT('',(209.8906569539,16.846965848592,
    -2.275566710991));
#140 = CARTESIAN_POINT('',(209.64620237167,16.851188487113,
    -2.245318606274));
#141 = CARTESIAN_POINT('',(209.40550712845,16.859311877461,
    -2.184560061925));
#142 = CARTESIAN_POINT('',(208.96575794346,16.880901593566,
    -2.010451042741));
#143 = CARTESIAN_POINT('',(208.76413692778,16.893666630478,
    -1.903816229161));
#144 = CARTESIAN_POINT('',(208.56975936145,16.908726109513,
    -1.77104276196));
#145 = CARTESIAN_POINT('',(208.38614583104,16.925462278201,
    -1.611143164299));
#146 = CARTESIAN_POINT('',(208.21759279922,16.942957735979,
    -1.423412561392));
#147 = CARTESIAN_POINT('',(208.06928246229,16.959930677392,
    -1.207594044983));
#148 = CARTESIAN_POINT('',(207.94750114304,16.974767679264,
    -0.964211007243));
#149 = CARTESIAN_POINT('',(207.78395452392,16.995371370401,
    -0.460866270027));
#150 = CARTESIAN_POINT('',(207.73507902348,17.001912893564,
    -0.210578147414));
#151 = CARTESIAN_POINT('',(207.71881595735,17.004247373263,
    4.86403034212E-02));
#152 = CARTESIAN_POINT('',(207.73737282746,17.001708020251,
    0.308764808735));
#153 = CARTESIAN_POINT('',(207.78995900189,16.994470956827,
    0.561512292096));
#154 = CARTESIAN_POINT('',(207.87286787792,16.983642255704,
    0.799134048388));
#155 = CARTESIAN_POINT('',(207.9794863951,16.970726900151,1.015298123623
    ));
#156 = CARTESIAN_POINT('',(208.27243268076,16.937907728023,1.47690760634
    ));
#157 = CARTESIAN_POINT('',(208.47931334523,16.916703070734,
    1.705029837707));
#158 = CARTESIAN_POINT('',(208.70933383319,16.89628177004,1.890767697798
    ));
#159 = CARTESIAN_POINT('',(208.95477341512,16.878564331003,
    2.036229920192));
#160 = CARTESIAN_POINT('',(209.21010107565,16.864658440779,
    2.143549017612));
#161 = CARTESIAN_POINT('',(209.47133012198,16.855189961567,
    2.214466531931));
#162 = CARTESIAN_POINT('',(209.73550804472,16.850445097979,2.25));
#163 = CARTESIAN_POINT('',(210.,16.850445097979,2.25));
#164 = PCURVE('',#32,#165);
#165 = DEFINITIONAL_REPRESENTATION('',(#166),#218);
#166 = B_SPLINE_CURVE_WITH_KNOTS('',8,(#167,#168,#169,#170,#171,#172,
    #173,#174,#175,#176,#177,#178,#179,#180,#181,#182,#183,#184,#185,
    #186,#187,#188,#189,#190,#191,#192,#193,#194,#195,#196,#197,#198,
    #199,#200,#201,#202,#203,#204,#205,#206,#207,#208,#209,#210,#211,
    #212,#213,#214,#215,#216,#217),.UNSPECIFIED.,.T.,.F.,(9,7,7,7,7,7,7,
    9),(0.,0.154580792336,0.28650523992,0.411708258671,0.568850631366,
    0.707289793852,0.827968235605,1.),.UNSPECIFIED.);
#167 = CARTESIAN_POINT('',(4.845131410753,20.));
#168 = CARTESIAN_POINT('',(4.845131410753,20.234874810787));
#169 = CARTESIAN_POINT('',(4.843468477381,20.469405789527));
#170 = CARTESIAN_POINT('',(4.840151232023,20.701784268588));
#171 = CARTESIAN_POINT('',(4.835145669622,20.930013322286));
#172 = CARTESIAN_POINT('',(4.82839056514,21.151490002246));
#173 = CARTESIAN_POINT('',(4.819807583306,21.362739313252));
#174 = CARTESIAN_POINT('',(4.809315046948,21.559036572636));
#175 = CARTESIAN_POINT('',(4.786219915036,21.882679861647));
#176 = CARTESIAN_POINT('',(4.773748899744,22.0215645089));
#177 = CARTESIAN_POINT('',(4.759630562108,22.138192388456));
#178 = CARTESIAN_POINT('',(4.744211236322,22.22351588388));
#179 = CARTESIAN_POINT('',(4.727958946032,22.271536500811));
#180 = CARTESIAN_POINT('',(4.7113982331,22.279370642422));
#181 = CARTESIAN_POINT('',(4.695069066939,22.247370802914));
#182 = CARTESIAN_POINT('',(4.664662175482,22.114720949619));
#183 = CARTESIAN_POINT('',(4.650964888237,22.019627945311));
#184 = CARTESIAN_POINT('',(4.63850890999,21.899764920692));
#185 = CARTESIAN_POINT('',(4.627366295467,21.760079449466));
#186 = CARTESIAN_POINT('',(4.617569056829,21.60494328317));
#187 = CARTESIAN_POINT('',(4.609119309078,21.438268347535));
#188 = CARTESIAN_POINT('',(4.601993557314,21.263561066044));
#189 = CARTESIAN_POINT('',(4.588805826903,20.858510512944));
#190 = CARTESIAN_POINT('',(4.583402862922,20.623006334334));
#191 = CARTESIAN_POINT('',(4.579854990931,20.381371640391));
#192 = CARTESIAN_POINT('',(4.578106175006,20.13646047315));
#193 = CARTESIAN_POINT('',(4.578128769075,19.890656953907));
#194 = CARTESIAN_POINT('',(4.579925347636,19.646202371672));
#195 = CARTESIAN_POINT('',(4.583531021829,19.405507128455));
#196 = CARTESIAN_POINT('',(4.59385116815,18.965757943463));
#197 = CARTESIAN_POINT('',(4.60016854064,18.764136927788));
#198 = CARTESIAN_POINT('',(4.608028529081,18.569759361457));
#199 = CARTESIAN_POINT('',(4.617485065956,18.386145831041));
#200 = CARTESIAN_POINT('',(4.62857416453,18.21759279922));
#201 = CARTESIAN_POINT('',(4.64130567101,18.069282462291));
#202 = CARTESIAN_POINT('',(4.655646027586,17.947501143042));
#203 = CARTESIAN_POINT('',(4.685279336523,17.783954523925));
#204 = CARTESIAN_POINT('',(4.700005581635,17.735079023481));
#205 = CARTESIAN_POINT('',(4.715250616831,17.718815957351));
#206 = CARTESIAN_POINT('',(4.73054733087,17.737372827468));
#207 = CARTESIAN_POINT('',(4.74541642242,17.789959001892));
#208 = CARTESIAN_POINT('',(4.759406329898,17.872867877929));
#209 = CARTESIAN_POINT('',(4.772143722116,17.979486395103));
#210 = CARTESIAN_POINT('',(4.799365762633,18.272432680765));
#211 = CARTESIAN_POINT('',(4.812839386092,18.479313345239));
#212 = CARTESIAN_POINT('',(4.823829082137,18.709333833196));
#213 = CARTESIAN_POINT('',(4.832448434225,18.954773415125));
#214 = CARTESIAN_POINT('',(4.838814005458,19.210101075656));
#215 = CARTESIAN_POINT('',(4.843022656715,19.471330121989));
#216 = CARTESIAN_POINT('',(4.845131410753,19.735508044726));
#217 = CARTESIAN_POINT('',(4.845131410753,20.));
#218 = ( GEOMETRIC_REPRESENTATION_CONTEXT(2) 
PARAMETRIC_REPRESENTATION_CONTEXT() REPRESENTATION_CONTEXT('2D SPACE',''
  ) );
#219 = PCURVE('',#220,#225);
#220 = CYLINDRICAL_SURFACE('',#221,2.25);
#221 = AXIS2_PLACEMENT_3D('',#222,#223,#224);
#222 = CARTESIAN_POINT('',(210.,-18.,0.));
#223 = DIRECTION('',(0.,1.,0.));
#224 = DIRECTION('',(0.,-0.,1.));
#225 = DEFINITIONAL_REPRESENTATION('',(#226),#278);
#226 = B_SPLINE_CURVE_WITH_KNOTS('',8,(#227,#228,#229,#230,#231,#232,
    #233,#234,#235,#236,#237,#238,#239,#240,#241,#242,#243,#244,#245,
    #246,#247,#248,#249,#250,#251,#252,#253,#254,#255,#256,#257,#258,
    #259,#260,#261,#262,#263,#264,#265,#266,#267,#268,#269,#270,#271,
    #272,#273,#274,#275,#276,#277),.UNSPECIFIED.,.F.,.F.,(9,7,7,7,7,7,7,
    9),(0.,0.154580792336,0.28650523992,0.411708258671,0.568850631366,
    0.707289793852,0.827968235605,1.),.UNSPECIFIED.);
#227 = CARTESIAN_POINT('',(0.,34.850445097979));
#228 = CARTESIAN_POINT('',(0.104388804794,34.850445097979));
#229 = CARTESIAN_POINT('',(0.208624387452,34.85418647646));
#230 = CARTESIAN_POINT('',(0.313638566241,34.861651123354));
#231 = CARTESIAN_POINT('',(0.420250674159,34.872651500079));
#232 = CARTESIAN_POINT('',(0.529263077426,34.886813584614));
#233 = CARTESIAN_POINT('',(0.641502583918,34.903467824624));
#234 = CARTESIAN_POINT('',(0.757893231105,34.921522475578));
#235 = CARTESIAN_POINT('',(0.983553802555,34.954645605613));
#236 = CARTESIAN_POINT('',(1.095306599022,34.970342311655));
#237 = CARTESIAN_POINT('',(1.212108961686,34.984885629406));
#238 = CARTESIAN_POINT('',(1.332206753721,34.996350844939));
#239 = CARTESIAN_POINT('',(1.454348180587,35.002968152283));
#240 = CARTESIAN_POINT('',(1.577453803203,35.003929119958));
#241 = CARTESIAN_POINT('',(1.70049311237,34.999518220957));
#242 = CARTESIAN_POINT('',(1.937557397633,34.982503976545));
#243 = CARTESIAN_POINT('',(2.048192970246,34.970582717911));
#244 = CARTESIAN_POINT('',(2.154747690757,34.95621831145));
#245 = CARTESIAN_POINT('',(2.257686712494,34.940664293936));
#246 = CARTESIAN_POINT('',(2.357357526804,34.925028505196));
#247 = CARTESIAN_POINT('',(2.45401937007,34.910192885696));
#248 = CARTESIAN_POINT('',(2.54784070088,34.896803184657));
#249 = CARTESIAN_POINT('',(2.753273881003,34.870801068087));
#250 = CARTESIAN_POINT('',(2.864503394289,34.859108558322));
#251 = CARTESIAN_POINT('',(2.97368612902,34.85099516251));
#252 = CARTESIAN_POINT('',(3.081691712188,34.846890575668));
#253 = CARTESIAN_POINT('',(3.189334176234,34.846965848592));
#254 = CARTESIAN_POINT('',(3.297426293384,34.851188487113));
#255 = CARTESIAN_POINT('',(3.406830570857,34.859311877461));
#256 = CARTESIAN_POINT('',(3.617036018279,34.880901593566));
#257 = CARTESIAN_POINT('',(3.717798605485,34.893666630478));
#258 = CARTESIAN_POINT('',(3.821302024306,34.908726109513));
#259 = CARTESIAN_POINT('',(3.927983716893,34.925462278201));
#260 = CARTESIAN_POINT('',(4.038341342731,34.942957735979));
#261 = CARTESIAN_POINT('',(4.152955118632,34.959930677392));
#262 = CARTESIAN_POINT('',(4.272557655565,34.974767679264));
#263 = CARTESIAN_POINT('',(4.507778978654,34.995371370401));
#264 = CARTESIAN_POINT('',(4.620286532615,35.001912893564));
#265 = CARTESIAN_POINT('',(4.734091747054,35.004247373263));
#266 = CARTESIAN_POINT('',(4.847963713725,35.001708020251));
#267 = CARTESIAN_POINT('',(4.96074529149,34.994470956827));
#268 = CARTESIAN_POINT('',(5.071189606779,34.983642255704));
#269 = CARTESIAN_POINT('',(5.177697537747,34.970726900151));
#270 = CARTESIAN_POINT('',(5.420683424983,34.937907728023));
#271 = CARTESIAN_POINT('',(5.555555974537,34.916703070734));
#272 = CARTESIAN_POINT('',(5.684468513566,34.89628177004));
#273 = CARTESIAN_POINT('',(5.808758557315,34.878564331003));
#274 = CARTESIAN_POINT('',(5.929646078325,34.864658440779));
#275 = CARTESIAN_POINT('',(6.048220433319,34.855189961567));
#276 = CARTESIAN_POINT('',(6.165633327058,34.850445097979));
#277 = CARTESIAN_POINT('',(6.28318530718,34.850445097979));
#278 = ( GEOMETRIC_REPRESENTATION_CONTEXT(2) 
PARAMETRIC_REPRESENTATION_CONTEXT() REPRESENTATION_CONTEXT('2D SPACE',''
  ) );
#279 = FACE_BOUND('',#280,.T.);
#280 = EDGE_LOOP('',(#281));
#281 = ORIENTED_EDGE('',*,*,#282,.T.);
#282 = EDGE_CURVE('',#283,#283,#285,.T.);
#283 = VERTEX_POINT('',#284);
#284 = CARTESIAN_POINT('',(210.,-16.85044509797,2.25));
#285 = SURFACE_CURVE('',#286,(#338,#393),.PCURVE_S1.);
#286 = B_SPLINE_CURVE_WITH_KNOTS('',8,(#287,#288,#289,#290,#291,#292,
    #293,#294,#295,#296,#297,#298,#299,#300,#301,#302,#303,#304,#305,
    #306,#307,#308,#309,#310,#311,#312,#313,#314,#315,#316,#317,#318,
    #319,#320,#321,#322,#323,#324,#325,#326,#327,#328,#329,#330,#331,
    #332,#333,#334,#335,#336,#337),.UNSPECIFIED.,.T.,.F.,(9,7,7,7,7,7,7,
    9),(0.,0.15458079187,0.286505239056,0.411708257457,0.568850632425,
    0.707289794571,0.827968236028,1.),.UNSPECIFIED.);
#287 = CARTESIAN_POINT('',(210.,-16.85044509797,2.25));
#288 = CARTESIAN_POINT('',(210.23487481078,-16.85044509797,2.25));
#289 = CARTESIAN_POINT('',(210.46940578952,-16.85418647646,
    2.221978807712));
#290 = CARTESIAN_POINT('',(210.70178426858,-16.86165112335,
    2.166081857772));
#291 = CARTESIAN_POINT('',(210.93001332228,-16.87265150007,
    2.081700833046));
#292 = CARTESIAN_POINT('',(211.15149000224,-16.88681358461,
    1.967736129697));
#293 = CARTESIAN_POINT('',(211.36273931325,-16.90346782462,
    1.822763842542));
#294 = CARTESIAN_POINT('',(211.55903657263,-16.92152247557,
    1.645281149875));
#295 = CARTESIAN_POINT('',(211.88267986164,-16.95464560561,
    1.254063617858));
#296 = CARTESIAN_POINT('',(212.0215645089,-16.97034231165,1.042626762857
    ));
#297 = CARTESIAN_POINT('',(212.13819238845,-16.9848856294,0.803019222839
    ));
#298 = CARTESIAN_POINT('',(212.22351588388,-16.99635084493,0.54106188621
    ));
#299 = CARTESIAN_POINT('',(212.27153650081,-17.00296815228,
    0.264737486432));
#300 = CARTESIAN_POINT('',(212.27937064242,-17.00392911995,
    -1.68800161202E-02));
#301 = CARTESIAN_POINT('',(212.24737080291,-16.99951822095,
    -0.29448114807));
#302 = CARTESIAN_POINT('',(212.1147209496,-16.98250397654,
    -0.811118216451));
#303 = CARTESIAN_POINT('',(212.01962794529,-16.9705827179,
    -1.043705813277));
#304 = CARTESIAN_POINT('',(211.89976492069,-16.95621831145,
    -1.255014731265));
#305 = CARTESIAN_POINT('',(211.7600794495,-16.94066429394,
    -1.443830810033));
#306 = CARTESIAN_POINT('',(211.6049432832,-16.92502850519,
    -1.609663954969));
#307 = CARTESIAN_POINT('',(211.43826834752,-16.91019288569,
    -1.752548424295));
#308 = CARTESIAN_POINT('',(211.26356106599,-16.89680318465,
    -1.872945683724));
#309 = CARTESIAN_POINT('',(210.85851050911,-16.87080106784,
    -2.095624111739));
#310 = CARTESIAN_POINT('',(210.62300634621,-16.85910855874,
    -2.186733177235));
#311 = CARTESIAN_POINT('',(210.38137162721,-16.85099516242,
    -2.24649936076));
#312 = CARTESIAN_POINT('',(210.13646047323,-16.84689057536,
    -2.275943376568));
#313 = CARTESIAN_POINT('',(209.89065696707,-16.84696584869,
    -2.275566710025));
#314 = CARTESIAN_POINT('',(209.64620235959,-16.85118848736,
    -2.245318604291));
#315 = CARTESIAN_POINT('',(209.40550713241,-16.85931187726,
    -2.184560063491));
#316 = CARTESIAN_POINT('',(208.96575794346,-16.88090159356,
    -2.010451042741));
#317 = CARTESIAN_POINT('',(208.76413692778,-16.89366663047,
    -1.903816229161));
#318 = CARTESIAN_POINT('',(208.56975936145,-16.90872610951,
    -1.77104276196));
#319 = CARTESIAN_POINT('',(208.38614583104,-16.9254622782,
    -1.611143164299));
#320 = CARTESIAN_POINT('',(208.21759279922,-16.94295773597,
    -1.423412561392));
#321 = CARTESIAN_POINT('',(208.06928246229,-16.95993067739,
    -1.207594044983));
#322 = CARTESIAN_POINT('',(207.94750114304,-16.97476767926,
    -0.964211007242));
#323 = CARTESIAN_POINT('',(207.78395452392,-16.9953713704,
    -0.460866270027));
#324 = CARTESIAN_POINT('',(207.73507902348,-17.00191289356,
    -0.210578147415));
#325 = CARTESIAN_POINT('',(207.71881595735,-17.00424737326,
    4.864030342133E-02));
#326 = CARTESIAN_POINT('',(207.73737282746,-17.00170802025,
    0.308764808734));
#327 = CARTESIAN_POINT('',(207.78995900189,-16.99447095682,
    0.561512292097));
#328 = CARTESIAN_POINT('',(207.87286787792,-16.9836422557,0.799134048387
    ));
#329 = CARTESIAN_POINT('',(207.9794863951,-16.97072690015,1.015298123623
    ));
#330 = CARTESIAN_POINT('',(208.27243268076,-16.93790772802,1.47690760634
    ));
#331 = CARTESIAN_POINT('',(208.47931334523,-16.91670307073,
    1.705029837708));
#332 = CARTESIAN_POINT('',(208.70933383319,-16.89628177004,
    1.890767697797));
#333 = CARTESIAN_POINT('',(208.95477341512,-16.878564331,2.036229920192)
  );
#334 = CARTESIAN_POINT('',(209.21010107565,-16.86465844077,
    2.143549017612));
#335 = CARTESIAN_POINT('',(209.47133012198,-16.85518996156,
    2.214466531931));
#336 = CARTESIAN_POINT('',(209.73550804472,-16.85044509797,2.25));
#337 = CARTESIAN_POINT('',(210.,-16.85044509797,2.25));
#338 = PCURVE('',#32,#339);
#339 = DEFINITIONAL_REPRESENTATION('',(#340),#392);
#340 = B_SPLINE_CURVE_WITH_KNOTS('',8,(#341,#342,#343,#344,#345,#346,
    #347,#348,#349,#350,#351,#352,#353,#354,#355,#356,#357,#358,#359,
    #360,#361,#362,#363,#364,#365,#366,#367,#368,#369,#370,#371,#372,
    #373,#374,#375,#376,#377,#378,#379,#380,#381,#382,#383,#384,#385,
    #386,#387,#388,#389,#390,#391),.UNSPECIFIED.,.F.,.F.,(9,7,7,7,7,7,7,
    9),(0.,0.15458079187,0.286505239056,0.411708257457,0.568850632425,
    0.707289794571,0.827968236028,1.),.UNSPECIFIED.);
#341 = CARTESIAN_POINT('',(1.438053896427,20.));
#342 = CARTESIAN_POINT('',(1.438053896427,20.234874810787));
#343 = CARTESIAN_POINT('',(1.439716829799,20.469405789527));
#344 = CARTESIAN_POINT('',(1.443034075156,20.701784268588));
#345 = CARTESIAN_POINT('',(1.448039637558,20.930013322286));
#346 = CARTESIAN_POINT('',(1.45479474204,21.151490002246));
#347 = CARTESIAN_POINT('',(1.463377723874,21.362739313252));
#348 = CARTESIAN_POINT('',(1.473870260232,21.559036572637));
#349 = CARTESIAN_POINT('',(1.496965392143,21.882679861647));
#350 = CARTESIAN_POINT('',(1.509436407436,22.021564508901));
#351 = CARTESIAN_POINT('',(1.523554745071,22.138192388454));
#352 = CARTESIAN_POINT('',(1.538974070858,22.223515883882));
#353 = CARTESIAN_POINT('',(1.555226361147,22.27153650081));
#354 = CARTESIAN_POINT('',(1.571787074079,22.279370642422));
#355 = CARTESIAN_POINT('',(1.588116240241,22.247370802914));
#356 = CARTESIAN_POINT('',(1.6185231317,22.114720949605));
#357 = CARTESIAN_POINT('',(1.632220418944,22.019627945291));
#358 = CARTESIAN_POINT('',(1.644676397188,21.899764920697));
#359 = CARTESIAN_POINT('',(1.65581901171,21.7600794495));
#360 = CARTESIAN_POINT('',(1.66561625035,21.604943283203));
#361 = CARTESIAN_POINT('',(1.674065998103,21.438268347527));
#362 = CARTESIAN_POINT('',(1.681191749868,21.263561065992));
#363 = CARTESIAN_POINT('',(1.694379480401,20.858510509117));
#364 = CARTESIAN_POINT('',(1.699782444043,20.623006346219));
#365 = CARTESIAN_POINT('',(1.703330316297,20.381371627218));
#366 = CARTESIAN_POINT('',(1.705079132325,20.136460473236));
#367 = CARTESIAN_POINT('',(1.705056538048,19.890656967074));
#368 = CARTESIAN_POINT('',(1.703259959426,19.646202359598));
#369 = CARTESIAN_POINT('',(1.699654285443,19.405507132411));
#370 = CARTESIAN_POINT('',(1.68933413903,18.965757943463));
#371 = CARTESIAN_POINT('',(1.68301676654,18.764136927788));
#372 = CARTESIAN_POINT('',(1.675156778099,18.569759361457));
#373 = CARTESIAN_POINT('',(1.665700241223,18.386145831041));
#374 = CARTESIAN_POINT('',(1.65461114265,18.21759279922));
#375 = CARTESIAN_POINT('',(1.64187963617,18.069282462291));
#376 = CARTESIAN_POINT('',(1.627539279593,17.947501143042));
#377 = CARTESIAN_POINT('',(1.597905970657,17.783954523925));
#378 = CARTESIAN_POINT('',(1.583179725544,17.735079023481));
#379 = CARTESIAN_POINT('',(1.567934690348,17.718815957351));
#380 = CARTESIAN_POINT('',(1.552637976309,17.737372827468));
#381 = CARTESIAN_POINT('',(1.537768884759,17.789959001893));
#382 = CARTESIAN_POINT('',(1.523778977282,17.872867877929));
#383 = CARTESIAN_POINT('',(1.511041585064,17.979486395103));
#384 = CARTESIAN_POINT('',(1.483819544546,18.272432680765));
#385 = CARTESIAN_POINT('',(1.470345921087,18.479313345239));
#386 = CARTESIAN_POINT('',(1.459356225042,18.709333833197));
#387 = CARTESIAN_POINT('',(1.450736872954,18.954773415123));
#388 = CARTESIAN_POINT('',(1.444371301722,19.210101075657));
#389 = CARTESIAN_POINT('',(1.440162650464,19.471330121988));
#390 = CARTESIAN_POINT('',(1.438053896427,19.735508044726));
#391 = CARTESIAN_POINT('',(1.438053896427,20.));
#392 = ( GEOMETRIC_REPRESENTATION_CONTEXT(2) 
PARAMETRIC_REPRESENTATION_CONTEXT() REPRESENTATION_CONTEXT('2D SPACE',''
  ) );
#393 = PCURVE('',#394,#399);
#394 = CYLINDRICAL_SURFACE('',#395,2.25);
#395 = AXIS2_PLACEMENT_3D('',#396,#397,#398);
#396 = CARTESIAN_POINT('',(210.,-18.,0.));
#397 = DIRECTION('',(0.,1.,0.));
#398 = DIRECTION('',(0.,-0.,1.));
#399 = DEFINITIONAL_REPRESENTATION('',(#400),#452);
#400 = B_SPLINE_CURVE_WITH_KNOTS('',8,(#401,#402,#403,#404,#405,#406,
    #407,#408,#409,#410,#411,#412,#413,#414,#415,#416,#417,#418,#419,
    #420,#421,#422,#423,#424,#425,#426,#427,#428,#429,#430,#431,#432,
    #433,#434,#435,#436,#437,#438,#439,#440,#441,#442,#443,#444,#445,
    #446,#447,#448,#449,#450,#451),.UNSPECIFIED.,.F.,.F.,(9,7,7,7,7,7,7,
    9),(0.,0.15458079187,0.286505239056,0.411708257457,0.568850632425,
    0.707289794571,0.827968236028,1.),.UNSPECIFIED.);
#401 = CARTESIAN_POINT('',(0.,1.149554902021));
#402 = CARTESIAN_POINT('',(0.104388804794,1.149554902021));
#403 = CARTESIAN_POINT('',(0.208624387452,1.14581352354));
#404 = CARTESIAN_POINT('',(0.313638566241,1.138348876646));
#405 = CARTESIAN_POINT('',(0.420250674159,1.127348499921));
#406 = CARTESIAN_POINT('',(0.529263077426,1.113186415386));
#407 = CARTESIAN_POINT('',(0.641502583918,1.096532175376));
#408 = CARTESIAN_POINT('',(0.757893231106,1.078477524422));
#409 = CARTESIAN_POINT('',(0.983553802555,1.045354394387));
#410 = CARTESIAN_POINT('',(1.095306599022,1.029657688345));
#411 = CARTESIAN_POINT('',(1.212108961684,1.015114370594));
#412 = CARTESIAN_POINT('',(1.332206753723,1.003649155061));
#413 = CARTESIAN_POINT('',(1.454348180586,0.997031847717));
#414 = CARTESIAN_POINT('',(1.577453803203,0.996070880042));
#415 = CARTESIAN_POINT('',(1.700493112369,1.000481779043));
#416 = CARTESIAN_POINT('',(1.937557397658,1.017496023456));
#417 = CARTESIAN_POINT('',(2.048192970257,1.029417282092));
#418 = CARTESIAN_POINT('',(2.154747690746,1.043781688549));
#419 = CARTESIAN_POINT('',(2.257686712472,1.05933570606));
#420 = CARTESIAN_POINT('',(2.357357526788,1.074971494802));
#421 = CARTESIAN_POINT('',(2.454019370077,1.089807114305));
#422 = CARTESIAN_POINT('',(2.547840700906,1.103196815346));
#423 = CARTESIAN_POINT('',(2.753273882944,1.129198932158));
#424 = CARTESIAN_POINT('',(2.864503388444,1.140891441257));
#425 = CARTESIAN_POINT('',(2.973686135348,1.149004837576));
#426 = CARTESIAN_POINT('',(3.081691712224,1.15310942464));
#427 = CARTESIAN_POINT('',(3.189334169904,1.153034151306));
#428 = CARTESIAN_POINT('',(3.29742629915,1.148811512632));
#429 = CARTESIAN_POINT('',(3.406830568966,1.140688122733));
#430 = CARTESIAN_POINT('',(3.617036018279,1.119098406434));
#431 = CARTESIAN_POINT('',(3.717798605485,1.106333369522));
#432 = CARTESIAN_POINT('',(3.821302024306,1.091273890487));
#433 = CARTESIAN_POINT('',(3.927983716893,1.074537721799));
#434 = CARTESIAN_POINT('',(4.038341342731,1.057042264021));
#435 = CARTESIAN_POINT('',(4.152955118632,1.040069322608));
#436 = CARTESIAN_POINT('',(4.272557655565,1.025232320736));
#437 = CARTESIAN_POINT('',(4.507778978655,1.004628629599));
#438 = CARTESIAN_POINT('',(4.620286532615,0.998087106436));
#439 = CARTESIAN_POINT('',(4.734091747054,0.995752626737));
#440 = CARTESIAN_POINT('',(4.847963713725,0.998291979748));
#441 = CARTESIAN_POINT('',(4.960745291491,1.005529043173));
#442 = CARTESIAN_POINT('',(5.071189606778,1.016357744296));
#443 = CARTESIAN_POINT('',(5.177697537747,1.029273099849));
#444 = CARTESIAN_POINT('',(5.420683424983,1.062092271977));
#445 = CARTESIAN_POINT('',(5.555555974537,1.083296929266));
#446 = CARTESIAN_POINT('',(5.684468513567,1.10371822996));
#447 = CARTESIAN_POINT('',(5.808758557315,1.121435668997));
#448 = CARTESIAN_POINT('',(5.929646078326,1.135341559221));
#449 = CARTESIAN_POINT('',(6.048220433319,1.144810038433));
#450 = CARTESIAN_POINT('',(6.165633327058,1.149554902021));
#451 = CARTESIAN_POINT('',(6.28318530718,1.149554902021));
#452 = ( GEOMETRIC_REPRESENTATION_CONTEXT(2) 
PARAMETRIC_REPRESENTATION_CONTEXT() REPRESENTATION_CONTEXT('2D SPACE',''
  ) );
#453 = ADVANCED_FACE('',(#454,#457),#94,.F.);
#454 = FACE_BOUND('',#455,.F.);
#455 = EDGE_LOOP('',(#456));
#456 = ORIENTED_EDGE('',*,*,#79,.T.);
#457 = FACE_BOUND('',#458,.F.);
#458 = EDGE_LOOP('',(#459,#487,#513,#539));
#459 = ORIENTED_EDGE('',*,*,#460,.T.);
#460 = EDGE_CURVE('',#461,#463,#465,.T.);
#461 = VERTEX_POINT('',#462);
#462 = CARTESIAN_POINT('',(190.,2.8,-12.8));
#463 = VERTEX_POINT('',#464);
#464 = CARTESIAN_POINT('',(190.,-2.8,-12.8));
#465 = SURFACE_CURVE('',#466,(#470,#476),.PCURVE_S1.);
#466 = LINE('',#467,#468);
#467 = CARTESIAN_POINT('',(190.,-1.4,-12.8));
#468 = VECTOR('',#469,1.);
#469 = DIRECTION('',(0.,-1.,0.));
#470 = PCURVE('',#94,#471);
#471 = DEFINITIONAL_REPRESENTATION('',(#472),#475);
#472 = B_SPLINE_CURVE_WITH_KNOTS('',1,(#473,#474),.UNSPECIFIED.,.F.,.F.,
  (2,2),(-4.2,1.4),.PIECEWISE_BEZIER_KNOTS.);
#473 = CARTESIAN_POINT('',(-12.8,-2.8));
#474 = CARTESIAN_POINT('',(-12.8,2.8));
#475 = ( GEOMETRIC_REPRESENTATION_CONTEXT(2) 
PARAMETRIC_REPRESENTATION_CONTEXT() REPRESENTATION_CONTEXT('2D SPACE',''
  ) );
#476 = PCURVE('',#477,#482);
#477 = PLANE('',#478);
#478 = AXIS2_PLACEMENT_3D('',#479,#480,#481);
#479 = CARTESIAN_POINT('',(189.9,-2.8,-12.8));
#480 = DIRECTION('',(0.,0.,1.));
#481 = DIRECTION('',(1.,0.,0.));
#482 = DEFINITIONAL_REPRESENTATION('',(#483),#486);
#483 = B_SPLINE_CURVE_WITH_KNOTS('',1,(#484,#485),.UNSPECIFIED.,.F.,.F.,
  (2,2),(-4.2,1.4),.PIECEWISE_BEZIER_KNOTS.);
#484 = CARTESIAN_POINT('',(9.999999999999E-02,5.6));
#485 = CARTESIAN_POINT('',(9.999999999999E-02,0.));
#486 = ( GEOMETRIC_REPRESENTATION_CONTEXT(2) 
PARAMETRIC_REPRESENTATION_CONTEXT() REPRESENTATION_CONTEXT('2D SPACE',''
  ) );
#487 = ORIENTED_EDGE('',*,*,#488,.T.);
#488 = EDGE_CURVE('',#463,#489,#491,.T.);
#489 = VERTEX_POINT('',#490);
#490 = CARTESIAN_POINT('',(190.,-2.8,12.8));
#491 = SURFACE_CURVE('',#492,(#496,#502),.PCURVE_S1.);
#492 = LINE('',#493,#494);
#493 = CARTESIAN_POINT('',(190.,-2.8,-6.4));
#494 = VECTOR('',#495,1.);
#495 = DIRECTION('',(0.,0.,1.));
#496 = PCURVE('',#94,#497);
#497 = DEFINITIONAL_REPRESENTATION('',(#498),#501);
#498 = B_SPLINE_CURVE_WITH_KNOTS('',1,(#499,#500),.UNSPECIFIED.,.F.,.F.,
  (2,2),(-6.4,19.2),.PIECEWISE_BEZIER_KNOTS.);
#499 = CARTESIAN_POINT('',(-12.8,2.8));
#500 = CARTESIAN_POINT('',(12.8,2.8));
#501 = ( GEOMETRIC_REPRESENTATION_CONTEXT(2) 
PARAMETRIC_REPRESENTATION_CONTEXT() REPRESENTATION_CONTEXT('2D SPACE',''
  ) );
#502 = PCURVE('',#503,#508);
#503 = PLANE('',#504);
#504 = AXIS2_PLACEMENT_3D('',#505,#506,#507);
#505 = CARTESIAN_POINT('',(189.9,-2.8,-12.8));
#506 = DIRECTION('',(0.,1.,0.));
#507 = DIRECTION('',(0.,0.,1.));
#508 = DEFINITIONAL_REPRESENTATION('',(#509),#512);
#509 = B_SPLINE_CURVE_WITH_KNOTS('',1,(#510,#511),.UNSPECIFIED.,.F.,.F.,
  (2,2),(-6.4,19.2),.PIECEWISE_BEZIER_KNOTS.);
#510 = CARTESIAN_POINT('',(0.,9.999999999999E-02));
#511 = CARTESIAN_POINT('',(25.6,9.999999999999E-02));
#512 = ( GEOMETRIC_REPRESENTATION_CONTEXT(2) 
PARAMETRIC_REPRESENTATION_CONTEXT() REPRESENTATION_CONTEXT('2D SPACE',''
  ) );
#513 = ORIENTED_EDGE('',*,*,#514,.F.);
#514 = EDGE_CURVE('',#515,#489,#517,.T.);
#515 = VERTEX_POINT('',#516);
#516 = CARTESIAN_POINT('',(190.,2.8,12.8));
#517 = SURFACE_CURVE('',#518,(#522,#528),.PCURVE_S1.);
#518 = LINE('',#519,#520);
#519 = CARTESIAN_POINT('',(190.,-1.4,12.8));
#520 = VECTOR('',#521,1.);
#521 = DIRECTION('',(0.,-1.,0.));
#522 = PCURVE('',#94,#523);
#523 = DEFINITIONAL_REPRESENTATION('',(#524),#527);
#524 = B_SPLINE_CURVE_WITH_KNOTS('',1,(#525,#526),.UNSPECIFIED.,.F.,.F.,
  (2,2),(-4.2,1.4),.PIECEWISE_BEZIER_KNOTS.);
#525 = CARTESIAN_POINT('',(12.8,-2.8));
#526 = CARTESIAN_POINT('',(12.8,2.8));
#527 = ( GEOMETRIC_REPRESENTATION_CONTEXT(2) 
PARAMETRIC_REPRESENTATION_CONTEXT() REPRESENTATION_CONTEXT('2D SPACE',''
  ) );
#528 = PCURVE('',#529,#534);
#529 = PLANE('',#530);
#530 = AXIS2_PLACEMENT_3D('',#531,#532,#533);
#531 = CARTESIAN_POINT('',(189.9,-2.8,12.8));
#532 = DIRECTION('',(0.,0.,1.));
#533 = DIRECTION('',(1.,0.,0.));
#534 = DEFINITIONAL_REPRESENTATION('',(#535),#538);
#535 = B_SPLINE_CURVE_WITH_KNOTS('',1,(#536,#537),.UNSPECIFIED.,.F.,.F.,
  (2,2),(-4.2,1.4),.PIECEWISE_BEZIER_KNOTS.);
#536 = CARTESIAN_POINT('',(9.999999999999E-02,5.6));
#537 = CARTESIAN_POINT('',(9.999999999999E-02,0.));
#538 = ( GEOMETRIC_REPRESENTATION_CONTEXT(2) 
PARAMETRIC_REPRESENTATION_CONTEXT() REPRESENTATION_CONTEXT('2D SPACE',''
  ) );
#539 = ORIENTED_EDGE('',*,*,#540,.F.);
#540 = EDGE_CURVE('',#461,#515,#541,.T.);
#541 = SURFACE_CURVE('',#542,(#546,#552),.PCURVE_S1.);
#542 = LINE('',#543,#544);
#543 = CARTESIAN_POINT('',(190.,2.8,-6.4));
#544 = VECTOR('',#545,1.);
#545 = DIRECTION('',(0.,0.,1.));
#546 = PCURVE('',#94,#547);
#547 = DEFINITIONAL_REPRESENTATION('',(#548),#551);
#548 = B_SPLINE_CURVE_WITH_KNOTS('',1,(#549,#550),.UNSPECIFIED.,.F.,.F.,
  (2,2),(-6.4,19.2),.PIECEWISE_BEZIER_KNOTS.);
#549 = CARTESIAN_POINT('',(-12.8,-2.8));
#550 = CARTESIAN_POINT('',(12.8,-2.8));
#551 = ( GEOMETRIC_REPRESENTATION_CONTEXT(2) 
PARAMETRIC_REPRESENTATION_CONTEXT() REPRESENTATION_CONTEXT('2D SPACE',''
  ) );
#552 = PCURVE('',#553,#558);
#553 = PLANE('',#554);
#554 = AXIS2_PLACEMENT_3D('',#555,#556,#557);
#555 = CARTESIAN_POINT('',(189.9,2.8,-12.8));
#556 = DIRECTION('',(0.,1.,0.));
#557 = DIRECTION('',(0.,0.,1.));
#558 = DEFINITIONAL_REPRESENTATION('',(#559),#562);
#559 = B_SPLINE_CURVE_WITH_KNOTS('',1,(#560,#561),.UNSPECIFIED.,.F.,.F.,
  (2,2),(-6.4,19.2),.PIECEWISE_BEZIER_KNOTS.);
#560 = CARTESIAN_POINT('',(0.,9.999999999999E-02));
#561 = CARTESIAN_POINT('',(25.6,9.999999999999E-02));
#562 = ( GEOMETRIC_REPRESENTATION_CONTEXT(2) 
PARAMETRIC_REPRESENTATION_CONTEXT() REPRESENTATION_CONTEXT('2D SPACE',''
  ) );
#563 = ADVANCED_FACE('',(#564,#567),#66,.T.);
#564 = FACE_BOUND('',#565,.T.);
#565 = EDGE_LOOP('',(#566));
#566 = ORIENTED_EDGE('',*,*,#51,.T.);
#567 = FACE_BOUND('',#568,.T.);
#568 = EDGE_LOOP('',(#569,#592,#613,#634));
#569 = ORIENTED_EDGE('',*,*,#570,.T.);
#570 = EDGE_CURVE('',#571,#573,#575,.T.);
#571 = VERTEX_POINT('',#572);
#572 = CARTESIAN_POINT('',(300.,2.8,-12.8));
#573 = VERTEX_POINT('',#574);
#574 = CARTESIAN_POINT('',(300.,-2.8,-12.8));
#575 = SURFACE_CURVE('',#576,(#580,#586),.PCURVE_S1.);
#576 = LINE('',#577,#578);
#577 = CARTESIAN_POINT('',(300.,-1.4,-12.8));
#578 = VECTOR('',#579,1.);
#579 = DIRECTION('',(0.,-1.,0.));
#580 = PCURVE('',#66,#581);
#581 = DEFINITIONAL_REPRESENTATION('',(#582),#585);
#582 = B_SPLINE_CURVE_WITH_KNOTS('',1,(#583,#584),.UNSPECIFIED.,.F.,.F.,
  (2,2),(-4.2,1.4),.PIECEWISE_BEZIER_KNOTS.);
#583 = CARTESIAN_POINT('',(-12.8,-2.8));
#584 = CARTESIAN_POINT('',(-12.8,2.8));
#585 = ( GEOMETRIC_REPRESENTATION_CONTEXT(2) 
PARAMETRIC_REPRESENTATION_CONTEXT() REPRESENTATION_CONTEXT('2D SPACE',''
  ) );
#586 = PCURVE('',#477,#587);
#587 = DEFINITIONAL_REPRESENTATION('',(#588),#591);
#588 = B_SPLINE_CURVE_WITH_KNOTS('',1,(#589,#590),.UNSPECIFIED.,.F.,.F.,
  (2,2),(-4.2,1.4),.PIECEWISE_BEZIER_KNOTS.);
#589 = CARTESIAN_POINT('',(110.1,5.6));
#590 = CARTESIAN_POINT('',(110.1,0.));
#591 = ( GEOMETRIC_REPRESENTATION_CONTEXT(2) 
PARAMETRIC_REPRESENTATION_CONTEXT() REPRESENTATION_CONTEXT('2D SPACE',''
  ) );
#592 = ORIENTED_EDGE('',*,*,#593,.T.);
#593 = EDGE_CURVE('',#573,#594,#596,.T.);
#594 = VERTEX_POINT('',#595);
#595 = CARTESIAN_POINT('',(300.,-2.8,12.8));
#596 = SURFACE_CURVE('',#597,(#601,#607),.PCURVE_S1.);
#597 = LINE('',#598,#599);
#598 = CARTESIAN_POINT('',(300.,-2.8,-6.4));
#599 = VECTOR('',#600,1.);
#600 = DIRECTION('',(0.,0.,1.));
#601 = PCURVE('',#66,#602);
#602 = DEFINITIONAL_REPRESENTATION('',(#603),#606);
#603 = B_SPLINE_CURVE_WITH_KNOTS('',1,(#604,#605),.UNSPECIFIED.,.F.,.F.,
  (2,2),(-6.4,19.2),.PIECEWISE_BEZIER_KNOTS.);
#604 = CARTESIAN_POINT('',(-12.8,2.8));
#605 = CARTESIAN_POINT('',(12.8,2.8));
#606 = ( GEOMETRIC_REPRESENTATION_CONTEXT(2) 
PARAMETRIC_REPRESENTATION_CONTEXT() REPRESENTATION_CONTEXT('2D SPACE',''
  ) );
#607 = PCURVE('',#503,#608);
#608 = DEFINITIONAL_REPRESENTATION('',(#609),#612);
#609 = B_SPLINE_CURVE_WITH_KNOTS('',1,(#610,#611),.UNSPECIFIED.,.F.,.F.,
  (2,2),(-6.4,19.2),.PIECEWISE_BEZIER_KNOTS.);
#610 = CARTESIAN_POINT('',(0.,110.1));
#611 = CARTESIAN_POINT('',(25.6,110.1));
#612 = ( GEOMETRIC_REPRESENTATION_CONTEXT(2) 
PARAMETRIC_REPRESENTATION_CONTEXT() REPRESENTATION_CONTEXT('2D SPACE',''
  ) );
#613 = ORIENTED_EDGE('',*,*,#614,.F.);
#614 = EDGE_CURVE('',#615,#594,#617,.T.);
#615 = VERTEX_POINT('',#616);
#616 = CARTESIAN_POINT('',(300.,2.8,12.8));
#617 = SURFACE_CURVE('',#618,(#622,#628),.PCURVE_S1.);
#618 = LINE('',#619,#620);
#619 = CARTESIAN_POINT('',(300.,-1.4,12.8));
#620 = VECTOR('',#621,1.);
#621 = DIRECTION('',(0.,-1.,0.));
#622 = PCURVE('',#66,#623);
#623 = DEFINITIONAL_REPRESENTATION('',(#624),#627);
#624 = B_SPLINE_CURVE_WITH_KNOTS('',1,(#625,#626),.UNSPECIFIED.,.F.,.F.,
  (2,2),(-4.2,1.4),.PIECEWISE_BEZIER_KNOTS.);
#625 = CARTESIAN_POINT('',(12.8,-2.8));
#626 = CARTESIAN_POINT('',(12.8,2.8));
#627 = ( GEOMETRIC_REPRESENTATION_CONTEXT(2) 
PARAMETRIC_REPRESENTATION_CONTEXT() REPRESENTATION_CONTEXT('2D SPACE',''
  ) );
#628 = PCURVE('',#529,#629);
#629 = DEFINITIONAL_REPRESENTATION('',(#630),#633);
#630 = B_SPLINE_CURVE_WITH_KNOTS('',1,(#631,#632),.UNSPECIFIED.,.F.,.F.,
  (2,2),(-4.2,1.4),.PIECEWISE_BEZIER_KNOTS.);
#631 = CARTESIAN_POINT('',(110.1,5.6));
#632 = CARTESIAN_POINT('',(110.1,0.));
#633 = ( GEOMETRIC_REPRESENTATION_CONTEXT(2) 
PARAMETRIC_REPRESENTATION_CONTEXT() REPRESENTATION_CONTEXT('2D SPACE',''
  ) );
#634 = ORIENTED_EDGE('',*,*,#635,.F.);
#635 = EDGE_CURVE('',#571,#615,#636,.T.);
#636 = SURFACE_CURVE('',#637,(#641,#647),.PCURVE_S1.);
#637 = LINE('',#638,#639);
#638 = CARTESIAN_POINT('',(300.,2.8,-6.4));
#639 = VECTOR('',#640,1.);
#640 = DIRECTION('',(0.,0.,1.));
#641 = PCURVE('',#66,#642);
#642 = DEFINITIONAL_REPRESENTATION('',(#643),#646);
#643 = B_SPLINE_CURVE_WITH_KNOTS('',1,(#644,#645),.UNSPECIFIED.,.F.,.F.,
  (2,2),(-6.4,19.2),.PIECEWISE_BEZIER_KNOTS.);
#644 = CARTESIAN_POINT('',(-12.8,-2.8));
#645 = CARTESIAN_POINT('',(12.8,-2.8));
#646 = ( GEOMETRIC_REPRESENTATION_CONTEXT(2) 
PARAMETRIC_REPRESENTATION_CONTEXT() REPRESENTATION_CONTEXT('2D SPACE',''
  ) );
#647 = PCURVE('',#553,#648);
#648 = DEFINITIONAL_REPRESENTATION('',(#649),#652);
#649 = B_SPLINE_CURVE_WITH_KNOTS('',1,(#650,#651),.UNSPECIFIED.,.F.,.F.,
  (2,2),(-6.4,19.2),.PIECEWISE_BEZIER_KNOTS.);
#650 = CARTESIAN_POINT('',(0.,110.1));
#651 = CARTESIAN_POINT('',(25.6,110.1));
#652 = ( GEOMETRIC_REPRESENTATION_CONTEXT(2) 
PARAMETRIC_REPRESENTATION_CONTEXT() REPRESENTATION_CONTEXT('2D SPACE',''
  ) );
#653 = ADVANCED_FACE('',(#654),#220,.F.);
#654 = FACE_BOUND('',#655,.F.);
#655 = EDGE_LOOP('',(#656,#657,#680,#702));
#656 = ORIENTED_EDGE('',*,*,#108,.F.);
#657 = ORIENTED_EDGE('',*,*,#658,.F.);
#658 = EDGE_CURVE('',#659,#109,#661,.T.);
#659 = VERTEX_POINT('',#660);
#660 = CARTESIAN_POINT('',(210.,2.8,2.25));
#661 = SEAM_CURVE('',#662,(#666,#673),.PCURVE_S1.);
#662 = LINE('',#663,#664);
#663 = CARTESIAN_POINT('',(210.,-18.,2.25));
#664 = VECTOR('',#665,1.);
#665 = DIRECTION('',(0.,1.,0.));
#666 = PCURVE('',#220,#667);
#667 = DEFINITIONAL_REPRESENTATION('',(#668),#672);
#668 = LINE('',#669,#670);
#669 = CARTESIAN_POINT('',(6.28318530718,-0.));
#670 = VECTOR('',#671,1.);
#671 = DIRECTION('',(0.,1.));
#672 = ( GEOMETRIC_REPRESENTATION_CONTEXT(2) 
PARAMETRIC_REPRESENTATION_CONTEXT() REPRESENTATION_CONTEXT('2D SPACE',''
  ) );
#673 = PCURVE('',#220,#674);
#674 = DEFINITIONAL_REPRESENTATION('',(#675),#679);
#675 = LINE('',#676,#677);
#676 = CARTESIAN_POINT('',(0.,-0.));
#677 = VECTOR('',#678,1.);
#678 = DIRECTION('',(0.,1.));
#679 = ( GEOMETRIC_REPRESENTATION_CONTEXT(2) 
PARAMETRIC_REPRESENTATION_CONTEXT() REPRESENTATION_CONTEXT('2D SPACE',''
  ) );
#680 = ORIENTED_EDGE('',*,*,#681,.T.);
#681 = EDGE_CURVE('',#659,#659,#682,.T.);
#682 = SURFACE_CURVE('',#683,(#688,#695),.PCURVE_S1.);
#683 = CIRCLE('',#684,2.25);
#684 = AXIS2_PLACEMENT_3D('',#685,#686,#687);
#685 = CARTESIAN_POINT('',(210.,2.8,0.));
#686 = DIRECTION('',(0.,1.,0.));
#687 = DIRECTION('',(0.,-0.,1.));
#688 = PCURVE('',#220,#689);
#689 = DEFINITIONAL_REPRESENTATION('',(#690),#694);
#690 = LINE('',#691,#692);
#691 = CARTESIAN_POINT('',(0.,20.8));
#692 = VECTOR('',#693,1.);
#693 = DIRECTION('',(1.,0.));
#694 = ( GEOMETRIC_REPRESENTATION_CONTEXT(2) 
PARAMETRIC_REPRESENTATION_CONTEXT() REPRESENTATION_CONTEXT('2D SPACE',''
  ) );
#695 = PCURVE('',#553,#696);
#696 = DEFINITIONAL_REPRESENTATION('',(#697),#701);
#697 = CIRCLE('',#698,2.25);
#698 = AXIS2_PLACEMENT_2D('',#699,#700);
#699 = CARTESIAN_POINT('',(12.8,20.1));
#700 = DIRECTION('',(1.,0.));
#701 = ( GEOMETRIC_REPRESENTATION_CONTEXT(2) 
PARAMETRIC_REPRESENTATION_CONTEXT() REPRESENTATION_CONTEXT('2D SPACE',''
  ) );
#702 = ORIENTED_EDGE('',*,*,#658,.T.);
#703 = ADVANCED_FACE('',(#704),#394,.F.);
#704 = FACE_BOUND('',#705,.F.);
#705 = EDGE_LOOP('',(#706,#730,#751,#752));
#706 = ORIENTED_EDGE('',*,*,#707,.F.);
#707 = EDGE_CURVE('',#708,#708,#710,.T.);
#708 = VERTEX_POINT('',#709);
#709 = CARTESIAN_POINT('',(210.,-2.8,2.25));
#710 = SURFACE_CURVE('',#711,(#716,#723),.PCURVE_S1.);
#711 = CIRCLE('',#712,2.25);
#712 = AXIS2_PLACEMENT_3D('',#713,#714,#715);
#713 = CARTESIAN_POINT('',(210.,-2.8,0.));
#714 = DIRECTION('',(0.,1.,0.));
#715 = DIRECTION('',(0.,-0.,1.));
#716 = PCURVE('',#394,#717);
#717 = DEFINITIONAL_REPRESENTATION('',(#718),#722);
#718 = LINE('',#719,#720);
#719 = CARTESIAN_POINT('',(0.,15.2));
#720 = VECTOR('',#721,1.);
#721 = DIRECTION('',(1.,0.));
#722 = ( GEOMETRIC_REPRESENTATION_CONTEXT(2) 
PARAMETRIC_REPRESENTATION_CONTEXT() REPRESENTATION_CONTEXT('2D SPACE',''
  ) );
#723 = PCURVE('',#503,#724);
#724 = DEFINITIONAL_REPRESENTATION('',(#725),#729);
#725 = CIRCLE('',#726,2.25);
#726 = AXIS2_PLACEMENT_2D('',#727,#728);
#727 = CARTESIAN_POINT('',(12.8,20.1));
#728 = DIRECTION('',(1.,0.));
#729 = ( GEOMETRIC_REPRESENTATION_CONTEXT(2) 
PARAMETRIC_REPRESENTATION_CONTEXT() REPRESENTATION_CONTEXT('2D SPACE',''
  ) );
#730 = ORIENTED_EDGE('',*,*,#731,.F.);
#731 = EDGE_CURVE('',#283,#708,#732,.T.);
#732 = SEAM_CURVE('',#733,(#737,#744),.PCURVE_S1.);
#733 = LINE('',#734,#735);
#734 = CARTESIAN_POINT('',(210.,-18.,2.25));
#735 = VECTOR('',#736,1.);
#736 = DIRECTION('',(0.,1.,0.));
#737 = PCURVE('',#394,#738);
#738 = DEFINITIONAL_REPRESENTATION('',(#739),#743);
#739 = LINE('',#740,#741);
#740 = CARTESIAN_POINT('',(6.28318530718,-0.));
#741 = VECTOR('',#742,1.);
#742 = DIRECTION('',(0.,1.));
#743 = ( GEOMETRIC_REPRESENTATION_CONTEXT(2) 
PARAMETRIC_REPRESENTATION_CONTEXT() REPRESENTATION_CONTEXT('2D SPACE',''
  ) );
#744 = PCURVE('',#394,#745);
#745 = DEFINITIONAL_REPRESENTATION('',(#746),#750);
#746 = LINE('',#747,#748);
#747 = CARTESIAN_POINT('',(0.,-0.));
#748 = VECTOR('',#749,1.);
#749 = DIRECTION('',(0.,1.));
#750 = ( GEOMETRIC_REPRESENTATION_CONTEXT(2) 
PARAMETRIC_REPRESENTATION_CONTEXT() REPRESENTATION_CONTEXT('2D SPACE',''
  ) );
#751 = ORIENTED_EDGE('',*,*,#282,.T.);
#752 = ORIENTED_EDGE('',*,*,#731,.T.);
#753 = ADVANCED_FACE('',(#754),#477,.T.);
#754 = FACE_BOUND('',#755,.T.);
#755 = EDGE_LOOP('',(#756,#777,#778,#799));
#756 = ORIENTED_EDGE('',*,*,#757,.F.);
#757 = EDGE_CURVE('',#461,#571,#758,.T.);
#758 = SURFACE_CURVE('',#759,(#763,#770),.PCURVE_S1.);
#759 = LINE('',#760,#761);
#760 = CARTESIAN_POINT('',(189.9,2.8,-12.8));
#761 = VECTOR('',#762,1.);
#762 = DIRECTION('',(1.,0.,0.));
#763 = PCURVE('',#477,#764);
#764 = DEFINITIONAL_REPRESENTATION('',(#765),#769);
#765 = LINE('',#766,#767);
#766 = CARTESIAN_POINT('',(0.,5.6));
#767 = VECTOR('',#768,1.);
#768 = DIRECTION('',(1.,0.));
#769 = ( GEOMETRIC_REPRESENTATION_CONTEXT(2) 
PARAMETRIC_REPRESENTATION_CONTEXT() REPRESENTATION_CONTEXT('2D SPACE',''
  ) );
#770 = PCURVE('',#553,#771);
#771 = DEFINITIONAL_REPRESENTATION('',(#772),#776);
#772 = LINE('',#773,#774);
#773 = CARTESIAN_POINT('',(0.,0.));
#774 = VECTOR('',#775,1.);
#775 = DIRECTION('',(0.,1.));
#776 = ( GEOMETRIC_REPRESENTATION_CONTEXT(2) 
PARAMETRIC_REPRESENTATION_CONTEXT() REPRESENTATION_CONTEXT('2D SPACE',''
  ) );
#777 = ORIENTED_EDGE('',*,*,#460,.T.);
#778 = ORIENTED_EDGE('',*,*,#779,.T.);
#779 = EDGE_CURVE('',#463,#573,#780,.T.);
#780 = SURFACE_CURVE('',#781,(#785,#792),.PCURVE_S1.);
#781 = LINE('',#782,#783);
#782 = CARTESIAN_POINT('',(189.9,-2.8,-12.8));
#783 = VECTOR('',#784,1.);
#784 = DIRECTION('',(1.,0.,0.));
#785 = PCURVE('',#477,#786);
#786 = DEFINITIONAL_REPRESENTATION('',(#787),#791);
#787 = LINE('',#788,#789);
#788 = CARTESIAN_POINT('',(0.,0.));
#789 = VECTOR('',#790,1.);
#790 = DIRECTION('',(1.,0.));
#791 = ( GEOMETRIC_REPRESENTATION_CONTEXT(2) 
PARAMETRIC_REPRESENTATION_CONTEXT() REPRESENTATION_CONTEXT('2D SPACE',''
  ) );
#792 = PCURVE('',#503,#793);
#793 = DEFINITIONAL_REPRESENTATION('',(#794),#798);
#794 = LINE('',#795,#796);
#795 = CARTESIAN_POINT('',(0.,0.));
#796 = VECTOR('',#797,1.);
#797 = DIRECTION('',(0.,1.));
#798 = ( GEOMETRIC_REPRESENTATION_CONTEXT(2) 
PARAMETRIC_REPRESENTATION_CONTEXT() REPRESENTATION_CONTEXT('2D SPACE',''
  ) );
#799 = ORIENTED_EDGE('',*,*,#570,.F.);
#800 = ADVANCED_FACE('',(#801,#827),#553,.F.);
#801 = FACE_BOUND('',#802,.F.);
#802 = EDGE_LOOP('',(#803,#804,#805,#826));
#803 = ORIENTED_EDGE('',*,*,#757,.F.);
#804 = ORIENTED_EDGE('',*,*,#540,.T.);
#805 = ORIENTED_EDGE('',*,*,#806,.T.);
#806 = EDGE_CURVE('',#515,#615,#807,.T.);
#807 = SURFACE_CURVE('',#808,(#812,#819),.PCURVE_S1.);
#808 = LINE('',#809,#810);
#809 = CARTESIAN_POINT('',(189.9,2.8,12.8));
#810 = VECTOR('',#811,1.);
#811 = DIRECTION('',(1.,0.,0.));
#812 = PCURVE('',#553,#813);
#813 = DEFINITIONAL_REPRESENTATION('',(#814),#818);
#814 = LINE('',#815,#816);
#815 = CARTESIAN_POINT('',(25.6,0.));
#816 = VECTOR('',#817,1.);
#817 = DIRECTION('',(0.,1.));
#818 = ( GEOMETRIC_REPRESENTATION_CONTEXT(2) 
PARAMETRIC_REPRESENTATION_CONTEXT() REPRESENTATION_CONTEXT('2D SPACE',''
  ) );
#819 = PCURVE('',#529,#820);
#820 = DEFINITIONAL_REPRESENTATION('',(#821),#825);
#821 = LINE('',#822,#823);
#822 = CARTESIAN_POINT('',(0.,5.6));
#823 = VECTOR('',#824,1.);
#824 = DIRECTION('',(1.,0.));
#825 = ( GEOMETRIC_REPRESENTATION_CONTEXT(2) 
PARAMETRIC_REPRESENTATION_CONTEXT() REPRESENTATION_CONTEXT('2D SPACE',''
  ) );
#826 = ORIENTED_EDGE('',*,*,#635,.F.);
#827 = FACE_BOUND('',#828,.F.);
#828 = EDGE_LOOP('',(#829));
#829 = ORIENTED_EDGE('',*,*,#681,.F.);
#830 = ADVANCED_FACE('',(#831),#529,.F.);
#831 = FACE_BOUND('',#832,.F.);
#832 = EDGE_LOOP('',(#833,#834,#835,#856));
#833 = ORIENTED_EDGE('',*,*,#806,.F.);
#834 = ORIENTED_EDGE('',*,*,#514,.T.);
#835 = ORIENTED_EDGE('',*,*,#836,.T.);
#836 = EDGE_CURVE('',#489,#594,#837,.T.);
#837 = SURFACE_CURVE('',#838,(#842,#849),.PCURVE_S1.);
#838 = LINE('',#839,#840);
#839 = CARTESIAN_POINT('',(189.9,-2.8,12.8));
#840 = VECTOR('',#841,1.);
#841 = DIRECTION('',(1.,0.,0.));
#842 = PCURVE('',#529,#843);
#843 = DEFINITIONAL_REPRESENTATION('',(#844),#848);
#844 = LINE('',#845,#846);
#845 = CARTESIAN_POINT('',(0.,0.));
#846 = VECTOR('',#847,1.);
#847 = DIRECTION('',(1.,0.));
#848 = ( GEOMETRIC_REPRESENTATION_CONTEXT(2) 
PARAMETRIC_REPRESENTATION_CONTEXT() REPRESENTATION_CONTEXT('2D SPACE',''
  ) );
#849 = PCURVE('',#503,#850);
#850 = DEFINITIONAL_REPRESENTATION('',(#851),#855);
#851 = LINE('',#852,#853);
#852 = CARTESIAN_POINT('',(25.6,0.));
#853 = VECTOR('',#854,1.);
#854 = DIRECTION('',(0.,1.));
#855 = ( GEOMETRIC_REPRESENTATION_CONTEXT(2) 
PARAMETRIC_REPRESENTATION_CONTEXT() REPRESENTATION_CONTEXT('2D SPACE',''
  ) );
#856 = ORIENTED_EDGE('',*,*,#614,.F.);
#857 = ADVANCED_FACE('',(#858,#864),#503,.T.);
#858 = FACE_BOUND('',#859,.T.);
#859 = EDGE_LOOP('',(#860,#861,#862,#863));
#860 = ORIENTED_EDGE('',*,*,#779,.F.);
#861 = ORIENTED_EDGE('',*,*,#488,.T.);
#862 = ORIENTED_EDGE('',*,*,#836,.T.);
#863 = ORIENTED_EDGE('',*,*,#593,.F.);
#864 = FACE_BOUND('',#865,.T.);
#865 = EDGE_LOOP('',(#866));
#866 = ORIENTED_EDGE('',*,*,#707,.F.);
#867 = ( GEOMETRIC_REPRESENTATION_CONTEXT(3) 
GLOBAL_UNCERTAINTY_ASSIGNED_CONTEXT((#871)) GLOBAL_UNIT_ASSIGNED_CONTEXT
((#868,#869,#870)) REPRESENTATION_CONTEXT('Context #1',
  '3D Context with UNIT and UNCERTAINTY') );
#868 = ( LENGTH_UNIT() NAMED_UNIT(*) SI_UNIT(.MILLI.,.METRE.) );
#869 = ( NAMED_UNIT(*) PLANE_ANGLE_UNIT() SI_UNIT($,.RADIAN.) );
#870 = ( NAMED_UNIT(*) SI_UNIT($,.STERADIAN.) SOLID_ANGLE_UNIT() );
#871 = UNCERTAINTY_MEASURE_WITH_UNIT(LENGTH_MEASURE(1.E-07),#868,
  'distance_accuracy_value','confusion accuracy');
#872 = PRODUCT_RELATED_PRODUCT_CATEGORY('part',$,(#7));
ENDSEC;
END-ISO-10303-21;
